<svg viewBox="0 0 132 27" fill="none" xmlns="http://www.w3.org/2000/svg">
<path d="M2 3H7M15 5L2 9.78947M15 17.2105L2 22M15 24H10" stroke="currentColor" stroke-width="3"/>
<path d="M15 11L2 16" stroke="currentColor" stroke-width="3" />
<path fill="currentColor" d="M40.876 14.732V19.828H45.244C47.2547 19.828 48.26 19.0133 48.26 17.384C48.26 15.616 47.2807 14.732 45.322 14.732H40.876ZM36.794 23V4.436H45.53C49.482 4.436 51.458 5.97 51.458 9.038C51.458 10.806 50.6173 12.0973 48.936 12.912C51.2067 13.5707 52.342 15.1393 52.342 17.618C52.342 19.386 51.666 20.7553 50.314 21.726C49.1353 22.5753 47.6273 23 45.79 23H36.794ZM40.876 7.608V11.95H45.01C46.674 11.95 47.506 11.2133 47.506 9.74C47.506 8.31867 46.57 7.608 44.698 7.608H40.876ZM54.2946 16.292C54.2946 14.1427 54.9273 12.4267 56.1926 11.144C57.458 9.844 59.1393 9.194 61.2366 9.194C63.3513 9.194 65.0413 9.844 66.3066 11.144C67.572 12.4267 68.2046 14.1427 68.2046 16.292C68.2046 18.424 67.572 20.14 66.3066 21.44C65.0413 22.7227 63.3513 23.364 61.2366 23.364C59.1393 23.364 57.458 22.7227 56.1926 21.44C54.9273 20.14 54.2946 18.424 54.2946 16.292ZM57.9866 16.292C57.9866 17.5227 58.2206 18.502 58.6886 19.23C59.2433 20.1313 60.0926 20.582 61.2366 20.582C63.4206 20.582 64.5126 19.152 64.5126 16.292C64.5126 13.4147 63.4206 11.976 61.2366 11.976C59.07 11.976 57.9866 13.4147 57.9866 16.292ZM70.7092 23V4.436H74.4012V23H70.7092ZM77.4123 23V4.436H81.1043V23H77.4123ZM96.7514 17.176H87.0534C87.1574 19.4467 88.2581 20.582 90.3554 20.582C91.0661 20.582 91.7074 20.3913 92.2794 20.01C92.8168 19.6807 93.1461 19.2907 93.2674 18.84H96.5174C95.5294 21.856 93.4321 23.364 90.2254 23.364C88.1281 23.364 86.4554 22.714 85.2074 21.414C83.9768 20.0967 83.3614 18.3893 83.3614 16.292C83.3614 14.2467 83.9941 12.5567 85.2594 11.222C86.5421 9.87 88.1974 9.194 90.2254 9.194C92.4094 9.194 94.0994 10.0087 95.2954 11.638C96.4048 13.1287 96.8901 14.9747 96.7514 17.176ZM87.0534 14.836H93.0594C92.7128 12.9293 91.7334 11.976 90.1214 11.976C89.0814 11.976 88.2841 12.3227 87.7294 13.016C87.3134 13.536 87.0881 14.1427 87.0534 14.836ZM111.707 14.29H108.093C107.85 12.7473 106.94 11.976 105.363 11.976C104.288 11.976 103.465 12.4527 102.893 13.406C102.442 14.2033 102.217 15.1827 102.217 16.344C102.217 17.4707 102.442 18.4153 102.893 19.178C103.43 20.114 104.228 20.582 105.285 20.582C106.984 20.582 107.963 19.672 108.223 17.852H111.785C111.56 19.62 110.866 20.9807 109.705 21.934C108.561 22.8873 107.096 23.364 105.311 23.364C103.3 23.364 101.662 22.7227 100.397 21.44C99.1491 20.1573 98.5251 18.502 98.5251 16.474C98.5251 14.3247 99.1231 12.5913 100.319 11.274C101.567 9.88733 103.257 9.194 105.389 9.194C107.088 9.194 108.509 9.61 109.653 10.442C110.918 11.378 111.603 12.6607 111.707 14.29ZM118.551 5.528V9.558H121.255V12.028H118.551V18.684C118.551 19.308 118.655 19.724 118.863 19.932C119.071 20.14 119.487 20.244 120.111 20.244C120.527 20.244 120.908 20.2093 121.255 20.14V23.026C120.735 23.1127 120.015 23.156 119.097 23.156C116.271 23.156 114.859 22.09 114.859 19.958V12.028H112.623V9.558H114.859V5.528H118.551Z"/>
</svg>
